<svg width="23" height="20" viewBox="0 0 23 20" fill="none" xmlns="http://www.w3.org/2000/svg">
<path d="M13.8491 7.8916L9.18066 12.1083C8.58096 11.5666 8.21191 10.8249 8.21191 9.99993C8.21191 8.34993 9.6881 7.0166 11.5149 7.0166C12.4283 7.0166 13.2494 7.34994 13.8491 7.8916Z" stroke="white" stroke-width="1.2" stroke-linecap="round" stroke-linejoin="round"/>
<path d="M16.8845 4.8084C15.2699 3.7084 13.4247 3.1084 11.5149 3.1084C8.25804 3.1084 5.22263 4.84173 3.10983 7.84173C2.27947 9.01673 2.27947 10.9917 3.10983 12.1667C3.8387 13.2001 4.68751 14.0917 5.61013 14.8084" stroke="white" stroke-width="1.2" stroke-linecap="round" stroke-linejoin="round"/>
<path d="M8.21191 16.2751C9.2637 16.6751 10.3801 16.8917 11.5149 16.8917C14.7717 16.8917 17.8072 15.1584 19.92 12.1584C20.7503 10.9834 20.7503 9.0084 19.92 7.8334C19.6155 7.40006 19.2833 6.99173 18.942 6.6084" stroke="white" stroke-width="1.2" stroke-linecap="round" stroke-linejoin="round"/>
<path d="M14.7533 10.583C14.5134 11.758 13.4524 12.7163 12.1515 12.933" stroke="white" stroke-width="1.2" stroke-linecap="round" stroke-linejoin="round"/>
<path d="M9.18066 12.1084L2.2887 18.3334" stroke="white" stroke-width="1.2" stroke-linecap="round" stroke-linejoin="round"/>
<path d="M20.7411 1.66699L13.8491 7.89199" stroke="white" stroke-width="1.2" stroke-linecap="round" stroke-linejoin="round"/>
</svg>
