<svg width="23" height="20" viewBox="0 0 23 20" fill="none" xmlns="http://www.w3.org/2000/svg">
<path d="M14.8179 9.99993C14.8179 11.6499 13.3417 12.9833 11.5149 12.9833C9.6881 12.9833 8.21191 11.6499 8.21191 9.99993C8.21191 8.34993 9.6881 7.0166 11.5149 7.0166C13.3417 7.0166 14.8179 8.34993 14.8179 9.99993Z" stroke="white" stroke-width="1.2" stroke-linecap="round" stroke-linejoin="round"/>
<path d="M11.5149 16.8913C14.7717 16.8913 17.8071 15.1579 19.9199 12.1579C20.7503 10.9829 20.7503 9.00794 19.9199 7.83294C17.8071 4.83294 14.7717 3.09961 11.5149 3.09961C8.25804 3.09961 5.22263 4.83294 3.10983 7.83294C2.27947 9.00794 2.27947 10.9829 3.10983 12.1579C5.22263 15.1579 8.25804 16.8913 11.5149 16.8913Z" stroke="white" stroke-width="1.2" stroke-linecap="round" stroke-linejoin="round"/>
</svg>
